<?xml version="1.0" standalone="no"?>
<!DOCTYPE svg PUBLIC "-//W3C//DTD SVG 20010904//EN"
 "http://www.w3.org/TR/2001/REC-SVG-20010904/DTD/svg10.dtd">
<svg version="1.0" xmlns="http://www.w3.org/2000/svg"
 width="362.000000pt" height="362.000000pt" viewBox="0 0 362.000000 362.000000"
 preserveAspectRatio="xMidYMid meet">
<metadata>
Created by potrace 1.11, written by Peter Selinger 2001-2013
</metadata>
<g transform="translate(0.000000,362.000000) scale(0.100000,-0.100000)"
fill="#000000" stroke="none">
<path d="M512 2233 c3 -7 -7 -15 -14 -12 -2 0 -70 1 -151 2 -129 2 -150 0
-164 -15 -18 -21 -19 -103 -1 -133 6 -10 7 -53 9 -235 0 -47 -5 -98 -11 -115
-15 -36 -15 -92 0 -110 5 -6 8 -14 5 -16 -2 -3 12 -4 32 -3 28 0 42 -6 61 -28
14 -15 30 -28 35 -28 5 0 -1 8 -13 18 -23 19 -20 52 3 34 7 -5 24 -7 40 -6 15
2 27 -2 27 -8 0 -6 -3 -8 -7 -5 -3 4 -12 2 -20 -4 -7 -6 -13 -7 -13 -2 0 5 -7
10 -16 10 -15 0 -14 -2 1 -13 13 -10 22 -11 31 -3 7 6 15 6 18 1 6 -11 46 -10
64 1 7 5 10 13 7 18 -4 5 -2 9 4 9 17 0 18 -24 1 -40 -9 -8 -10 -11 -3 -6 7 5
23 10 36 11 12 1 25 3 30 4 4 0 7 10 7 21 0 15 5 19 23 16 12 -2 27 1 34 6 7
6 14 5 19 -3 5 -8 3 -9 -6 -4 -9 5 -11 4 -6 -4 10 -16 26 -4 19 14 -9 25 6 16
22 -12 l15 -28 -2 30 c-2 17 -7 33 -13 37 -5 4 3 6 18 4 15 -1 30 -6 35 -11 4
-4 2 -6 -3 -2 -6 3 -17 1 -25 -4 -11 -7 -7 -8 13 -5 16 3 27 0 27 -6 0 -6 3
-9 6 -6 11 12 -27 57 -44 51 -14 -4 -15 -3 -2 5 10 8 18 8 27 0 9 -7 13 -7 13
0 0 6 -8 16 -17 21 -10 6 -13 11 -6 11 6 0 15 -5 18 -10 4 -6 11 -8 16 -5 5 3
6 0 3 -8 -3 -8 2 -19 10 -26 12 -10 13 -18 5 -35 -10 -17 -9 -19 2 -8 16 15
33 16 23 0 -5 -8 -2 -9 11 -5 14 6 16 3 12 -13 -3 -11 -1 -23 4 -26 5 -3 9 -2
8 3 -3 19 2 33 12 33 5 0 7 -4 4 -10 -8 -13 1 -13 26 0 14 8 19 7 19 -2 0 -9
3 -9 10 2 6 10 10 11 10 3 0 -7 5 -13 11 -13 5 0 8 4 5 9 -3 4 9 7 27 7 18 -1
35 2 38 7 3 5 9 2 12 -6 4 -10 0 -14 -11 -12 -9 1 -25 -2 -36 -7 -14 -8 -17
-7 -11 4 5 7 4 9 0 5 -5 -4 -10 -14 -11 -22 -2 -11 2 -12 14 -6 10 5 25 7 34
6 10 -2 21 1 24 6 3 6 12 5 22 -3 15 -11 15 -11 4 3 -10 13 -9 19 5 30 11 9
14 10 9 2 -4 -7 -2 -21 3 -30 6 -10 11 -12 11 -6 0 15 21 13 32 -2 5 -6 8 -4
8 5 0 13 1 13 11 0 9 -13 10 -13 6 0 -2 10 -15 15 -35 14 -25 0 -29 2 -21 13
6 7 16 10 23 6 17 -11 48 -14 42 -4 -3 5 3 7 14 4 11 -3 17 -9 14 -14 -3 -5
-9 -7 -14 -4 -10 6 -7 -21 4 -32 4 -4 6 -1 4 7 -2 8 3 14 10 12 8 -1 11 1 8 6
-6 11 24 72 36 72 7 0 6 -5 -1 -13 -6 -8 -7 -18 -3 -22 4 -5 2 -6 -3 -2 -6 3
-12 -3 -12 -14 -2 -17 0 -18 13 -4 9 8 13 19 9 24 -3 5 5 17 17 27 15 11 17
14 6 11 -17 -6 -45 27 -40 47 2 4 -3 16 -10 25 -12 14 -11 15 5 2 17 -13 23
-7 18 22 0 4 3 8 9 8 5 1 14 2 19 3 22 3 22 17 1 50 -12 20 -18 41 -14 47 4 8
3 9 -5 5 -6 -4 -9 -16 -6 -27 6 -17 -3 -24 -27 -20 -5 0 -8 -3 -8 -9 0 -13 6
-13 30 0 15 8 21 6 30 -9 13 -26 13 -26 -11 -28 -16 -2 -18 1 -10 11 9 10 5
13 -16 12 -19 -1 -28 4 -28 14 0 8 6 14 13 12 6 -1 12 8 12 19 0 19 -2 20 -17
8 -16 -12 -17 -12 -6 2 7 9 9 20 5 24 -4 5 -2 5 4 2 7 -4 18 1 25 10 12 14 12
16 -2 11 -9 -3 -22 -2 -30 3 -8 5 -9 9 -3 9 10 0 10 10 2 88 -1 6 -5 12 -10
12 -5 0 -8 6 -7 13 3 22 -1 40 -7 34 -4 -3 -12 0 -19 7 -12 12 -32 12 -117 3
-21 -2 -38 0 -38 4 0 5 -4 9 -10 9 -5 0 -7 -7 -4 -15 3 -8 -2 -22 -11 -31 -13
-14 -14 -19 -3 -26 10 -8 10 -9 -2 -5 -8 2 -14 11 -12 20 1 8 -7 18 -18 22
-23 7 -25 15 -7 35 8 10 6 10 -8 -1 -23 -17 -59 -14 -48 4 5 9 3 9 -8 0 -17
-14 -100 -13 -91 1 3 5 -2 6 -12 3 -9 -4 -15 -3 -12 1 3 5 -1 21 -9 36 -8 14
-10 24 -5 21 6 -4 10 -1 10 4 0 6 -6 11 -13 11 -7 0 -23 9 -35 20 -12 11 -26
20 -32 20 -5 0 -10 5 -10 11 0 5 -4 7 -10 4 -5 -3 -10 -2 -10 4 0 6 -7 7 -17
4 -10 -4 -14 -2 -9 5 3 6 2 14 -4 17 -6 4 -9 3 -8 -2z m-85 -248 c0 -8 -4 -15
-9 -15 -10 0 -11 14 -1 23 9 10 10 9 10 -8z m20 -52 c0 -21 -2 -32 -4 -25 -3
6 -9 10 -14 6 -5 -3 -9 -1 -9 5 0 5 6 12 13 15 9 5 9 7 -2 12 -11 5 -11 8 0
15 8 5 14 9 14 9 1 0 1 -17 2 -37z m10 -60 c-3 -2 -7 -3 -10 -1 -2 2 -12 -4
-23 -12 -17 -14 -18 -14 -6 2 8 9 11 22 7 29 -5 8 -1 8 15 -1 12 -6 19 -14 17
-17z m438 7 c-3 -5 -12 -10 -18 -10 -7 0 -6 4 3 10 19 12 23 12 15 0z m-445
-41 c0 -5 -4 -7 -10 -4 -14 9 -13 -8 2 -23 8 -8 8 -12 1 -12 -13 0 -25 28 -17
41 7 12 24 11 24 -2z m686 -83 c0 -14 -4 -22 -8 -20 -5 3 -6 10 -3 15 4 5 -2
9 -12 10 -16 0 -16 1 2 9 11 5 20 9 21 9 0 1 0 -10 0 -23z m-704 7 c-6 -2 -9
-10 -6 -15 4 -7 2 -8 -5 -4 -13 9 -5 26 12 25 9 0 8 -2 -1 -6z m-7 -182 c3 -5
1 -12 -5 -16 -5 -3 -10 -1 -10 4 0 6 -5 11 -11 11 -5 0 -8 -4 -5 -8 3 -5 -1
-9 -8 -9 -8 0 -12 6 -9 14 6 15 39 18 48 4z m72 -6 c-5 -14 -29 -13 -34 2 -3
7 4 11 16 10 12 -1 20 -6 18 -12z"/>
<path d="M3120 2234 c0 -6 -12 -10 -27 -9 -16 1 -49 -6 -75 -16 -27 -9 -48
-15 -48 -12 0 2 -7 -3 -16 -11 -8 -9 -20 -13 -26 -10 -6 4 -8 2 -4 -4 3 -6 1
-23 -5 -38 -13 -36 -14 -116 -1 -141 9 -16 7 -19 -14 -21 -14 -1 -23 2 -19 7
3 5 -1 12 -7 15 -7 3 -2 3 11 0 16 -4 21 -3 17 5 -4 6 -16 11 -27 11 -11 0
-22 7 -26 16 -3 8 -12 13 -20 10 -8 -3 -11 -1 -8 4 3 6 -3 10 -14 10 -11 0
-22 4 -26 10 -3 5 -12 7 -19 4 -8 -3 -30 -1 -49 4 -20 6 -38 7 -42 4 -3 -3
-29 -7 -56 -8 -28 -2 -54 -5 -57 -8 -3 -3 -11 -1 -19 6 -10 8 -12 8 -8 -4 4
-9 -4 -19 -19 -28 -14 -7 -23 -18 -19 -23 4 -6 -3 -8 -18 -4 -22 6 -23 5 -6
-8 12 -8 14 -15 7 -20 -5 -3 -8 -11 -5 -16 4 -5 2 -9 -4 -9 -5 0 -8 -13 -6
-29 4 -28 3 -29 -13 -13 -13 13 -14 18 -4 20 11 3 11 6 0 19 -7 9 -13 21 -14
27 -6 60 -64 95 -146 89 -29 -2 -59 -5 -65 -8 -7 -2 -13 0 -13 5 0 6 -5 10
-11 10 -5 0 -7 -5 -3 -12 4 -7 3 -8 -5 -4 -19 12 -61 14 -61 4 0 -5 -7 -5 -17
1 -9 5 -26 6 -37 2 -12 -4 -31 -6 -43 -5 -12 0 -24 -5 -27 -13 -3 -8 -10 -12
-14 -9 -5 3 -7 -5 -4 -19 3 -19 0 -24 -16 -22 -11 0 -19 4 -16 8 2 4 -3 12
-11 19 -8 7 -15 18 -15 24 0 11 -7 13 -100 18 -30 2 -61 7 -69 12 -10 6 -12 5
-7 -2 5 -8 -1 -12 -14 -12 -14 0 -19 4 -14 13 5 8 3 8 -9 -2 -9 -7 -26 -11
-37 -8 -11 3 -20 1 -20 -4 0 -5 -9 -9 -19 -9 -11 0 -27 -10 -35 -22 -15 -20
-16 -21 -16 -4 0 11 -3 17 -6 13 -4 -3 -13 1 -21 9 -8 8 -19 12 -24 9 -5 -4
-9 -1 -9 5 0 7 -7 7 -22 -1 -13 -7 -24 -13 -25 -13 -1 -1 -9 8 -18 19 -9 11
-14 14 -10 8 4 -9 -3 -12 -24 -9 -18 2 -36 -2 -42 -10 -6 -8 -21 -12 -33 -10
-11 3 -25 5 -29 5 -5 1 -6 5 -2 10 3 5 0 13 -6 17 -7 4 -9 3 -5 -4 3 -6 2 -13
-3 -16 -5 -4 -13 -2 -16 4 -5 7 -11 8 -19 1 -6 -5 -17 -7 -23 -3 -21 13 -95 3
-116 -15 -20 -17 -20 -17 -14 0 4 11 3 16 -4 12 -5 -4 -7 -16 -3 -27 5 -16 3
-19 -7 -12 -12 6 -12 5 0 -9 7 -9 10 -17 6 -17 -4 0 0 -12 10 -26 9 -15 12
-24 7 -20 -6 4 -10 -2 -9 -14 1 -13 6 -19 15 -15 7 2 10 1 7 -4 -3 -5 0 -13 5
-16 8 -5 5 -14 -7 -28 -14 -17 -14 -19 -1 -9 11 9 18 10 23 2 3 -5 3 -10 0
-10 -4 0 3 -13 15 -30 12 -16 18 -30 14 -30 -5 0 -3 -5 4 -12 9 -9 8 -16 -6
-32 -16 -20 -16 -20 2 -6 18 14 19 13 14 -8 -4 -12 -3 -20 2 -17 4 3 11 -3 14
-12 4 -9 1 -20 -6 -25 -9 -5 -8 -8 6 -8 11 0 16 -3 13 -7 -4 -3 -1 -13 6 -21
10 -13 9 -14 -3 -7 -13 8 -13 7 -1 -8 11 -14 11 -17 0 -17 -12 0 -12 -2 0 -9
11 -7 8 -13 -15 -28 -25 -15 -29 -24 -28 -58 2 -62 3 -65 19 -65 8 0 16 -4 16
-10 1 -5 2 -14 3 -19 0 -5 4 -13 8 -17 4 -3 6 2 4 12 -4 17 3 19 68 20 39 1
80 5 90 9 12 5 17 5 13 -1 -3 -6 -1 -16 4 -24 8 -12 9 -11 7 5 -2 11 2 19 9
18 8 -2 10 4 6 15 -6 15 -5 16 13 2 17 -14 18 -14 6 2 -11 14 -10 18 5 27 10
6 13 11 6 11 -7 0 -10 7 -7 15 4 8 10 12 15 9 5 -3 6 3 2 12 -5 13 -3 15 7 9
9 -6 11 -4 5 5 -6 10 -11 9 -21 -4 -6 -9 -15 -13 -17 -8 -3 4 7 16 24 26 38
23 37 42 -2 38 -3 -1 -6 6 -6 13 0 11 4 12 14 4 7 -6 13 -8 13 -4 0 4 8 1 18
-6 9 -7 14 -9 10 -5 -4 5 -3 15 3 23 19 22 -7 46 -35 32 -17 -9 -19 -9 -9 1
17 18 63 21 63 4 0 -8 5 -14 10 -14 7 0 7 6 0 20 -9 16 -8 20 5 20 9 0 14 -4
11 -9 -3 -4 3 -19 14 -31 11 -13 20 -27 20 -31 0 -7 31 -21 55 -25 6 -1 12 -3
15 -4 3 -1 17 -3 33 -4 15 -1 27 -6 28 -11 0 -6 9 -13 21 -18 14 -5 18 -13 14
-25 -5 -14 -4 -14 9 2 14 19 11 41 -5 31 -5 -3 -12 0 -16 6 -4 7 -3 9 4 5 5
-3 13 0 15 6 4 10 6 10 6 0 1 -7 6 -10 11 -7 9 5 15 -15 11 -37 0 -5 4 -8 10
-8 7 0 8 12 4 33 -4 22 -3 28 4 18 7 -10 13 -12 23 -5 16 13 38 12 38 -1 0 -5
-9 -10 -19 -10 -11 0 -23 -4 -28 -9 -4 -5 -3 -6 4 -2 6 3 15 1 18 -4 5 -8 13
-6 26 6 17 16 24 13 20 -9 -1 -5 3 -6 9 -2 6 3 8 10 5 15 -5 8 23 25 38 22 4
-1 7 3 7 9 0 5 5 7 10 4 6 -4 7 -11 4 -17 -4 -7 -2 -8 5 -4 9 6 9 11 0 22 -10
12 -16 12 -45 -5 -26 -16 -33 -17 -38 -6 -3 10 0 12 11 8 11 -4 14 -3 9 6 -4
6 -4 11 1 10 18 -3 47 3 36 8 -10 3 -10 8 1 19 19 19 32 18 16 -1 -10 -12 -8
-17 14 -26 14 -7 23 -15 21 -19 -3 -5 11 -4 30 0 21 5 38 4 41 -2 4 -5 11 -5
19 2 9 7 16 6 25 -4 10 -13 8 -15 -7 -11 -12 2 -20 -2 -20 -10 0 -8 5 -11 11
-7 6 3 20 7 31 8 11 1 30 5 43 8 12 3 22 0 22 -6 0 -20 13 1 16 25 1 12 3 25
3 29 2 15 26 3 34 -16 5 -12 14 -17 28 -13 16 4 18 3 8 -9 -7 -9 -8 -14 -1
-14 6 0 14 5 17 11 5 6 11 4 19 -7 9 -11 15 -13 20 -6 4 6 13 9 21 6 8 -4 12
-11 8 -17 -3 -6 -1 -7 6 -3 6 4 9 11 6 16 -4 7 19 22 38 24 5 1 15 10 23 20 8
11 14 15 14 10 0 -6 -5 -15 -12 -22 -9 -9 -9 -12 1 -12 7 0 9 -5 5 -12 -4 -7
-3 -8 5 -4 6 4 9 12 6 17 -4 5 -1 9 5 9 6 0 8 5 5 10 -3 6 1 13 9 16 9 3 13
11 9 17 -3 6 -1 7 5 3 6 -4 9 -13 6 -21 -4 -10 0 -13 15 -10 12 2 21 0 21 -4
0 -13 50 -32 63 -24 7 4 6 -1 -2 -10 -12 -15 -12 -17 4 -11 12 5 16 4 12 -3
-4 -7 0 -10 10 -9 10 2 21 -4 25 -13 6 -14 7 -14 7 2 1 9 6 17 12 17 5 0 8 -4
4 -9 -3 -5 0 -13 6 -17 8 -4 9 -3 5 4 -4 7 -2 12 3 12 6 0 11 4 11 9 0 4 -16
8 -37 7 -22 -1 -38 4 -41 12 -3 11 0 12 17 3 16 -9 21 -9 21 0 0 8 4 8 15 -1
12 -10 15 -10 15 1 0 8 6 5 15 -7 8 -10 15 -14 14 -9 -3 22 2 27 16 15 8 -7
15 -10 15 -6 0 4 13 0 29 -8 24 -13 31 -13 40 -2 6 7 7 17 3 21 -4 5 1 5 11 2
20 -7 21 -3 5 26 -10 19 -9 20 4 9 21 -17 44 8 26 26 -8 8 -9 12 -1 12 18 0
23 -28 7 -40 -16 -15 -19 -30 -3 -30 5 0 8 4 4 10 -3 5 6 17 20 26 14 9 24 24
24 33 -1 14 -2 13 -6 -1 -2 -10 -8 -18 -11 -18 -9 0 -8 108 1 116 3 4 2 15 -3
25 -10 18 -4 49 9 49 4 0 8 -7 8 -15 0 -8 -4 -12 -9 -9 -4 3 -8 0 -8 -5 0 -14
27 -14 35 -1 3 6 2 10 -3 10 -11 0 -10 79 1 97 4 6 3 15 -3 18 -8 5 -7 11 1
21 6 7 15 12 19 9 5 -3 12 4 15 16 6 19 7 20 20 2 7 -10 11 -21 9 -25 -2 -4 1
-10 7 -14 8 -5 9 -3 4 6 -6 10 -4 12 8 7 11 -4 14 -2 11 8 -3 8 -11 13 -16 12
-6 -1 -13 5 -15 13 -4 12 -3 12 5 1 8 -11 10 -11 15 0 4 11 6 11 6 1 1 -7 5
-11 10 -8 5 3 15 -2 22 -11 8 -9 9 -14 3 -10 -6 3 -17 -5 -24 -18 -7 -14 -17
-25 -21 -25 -4 0 -6 -17 -4 -37 2 -24 -3 -45 -13 -56 -15 -16 -14 -17 3 -11
13 5 16 4 11 -4 -4 -7 -1 -12 6 -12 21 0 54 -27 45 -36 -4 -5 -13 -2 -18 6 -9
13 -10 12 -6 -2 3 -9 -3 -26 -13 -38 -17 -19 -17 -26 -5 -65 7 -24 10 -47 7
-50 -4 -3 2 -3 12 1 14 5 17 4 12 -4 -4 -7 -2 -12 4 -12 6 0 8 -5 4 -12 -4 -7
-3 -8 5 -4 6 4 9 13 5 19 -3 7 0 5 8 -4 21 -26 55 -41 55 -24 0 7 -6 11 -13 8
-6 -2 -15 0 -18 6 -5 7 4 9 24 7 21 -2 33 1 37 11 4 11 8 11 18 -3 11 -15 14
-14 38 11 27 30 31 75 7 83 -13 5 -13 2 7 -46 3 -7 0 -12 -8 -10 -8 2 -13 -3
-11 -10 1 -8 -2 -11 -9 -6 -7 4 -9 3 -5 -4 3 -6 3 -13 -2 -16 -4 -2 -8 6 -8
19 0 13 4 21 10 18 5 -4 7 1 3 11 -4 10 -3 15 3 11 6 -3 10 -2 10 4 0 5 -5 13
-11 16 -6 5 -4 11 7 19 13 10 14 15 4 21 -9 6 -11 4 -5 -5 5 -9 4 -11 -4 -6
-6 4 -8 12 -5 18 5 8 1 9 -12 5 -17 -6 -17 -6 -2 6 12 10 14 17 6 31 -8 15 -8
17 2 11 10 -6 12 -3 6 11 -4 10 -4 15 0 12 8 -9 33 14 27 25 -2 4 -1 7 4 6 4
-1 10 -1 13 1 20 7 59 7 55 -1 -3 -5 1 -6 11 -2 14 5 15 7 1 15 -10 5 -14 15
-10 25 5 12 3 14 -7 8 -9 -6 -11 -4 -5 5 5 9 14 4 32 -16 18 -22 21 -23 13 -7
-12 26 1 63 29 80 14 9 18 8 18 -3 0 -7 -5 -10 -10 -7 -6 4 -7 1 -2 -7 5 -9 4
-11 -3 -6 -8 5 -10 1 -6 -11 5 -15 4 -16 -6 -3 -10 13 -11 12 -6 -3 4 -12 2
-16 -6 -11 -7 4 -8 3 -4 -4 11 -19 22 -14 36 16 18 36 18 43 3 73 -11 25 -11
27 7 22 11 -3 20 -10 20 -15 0 -5 -5 -6 -12 -2 -7 5 -8 3 -3 -5 5 -10 10 -10
19 -1 8 8 5 16 -14 31 -14 12 -19 17 -11 13 9 -4 12 -2 9 7 -3 8 -10 13 -15
12 -5 -1 -10 4 -10 12 0 8 4 12 9 9 4 -3 8 0 8 6 0 6 5 8 10 5 6 -3 10 -1 10
5 0 7 -8 9 -21 5 -16 -5 -20 -3 -17 6 3 8 -3 29 -13 48 -20 37 -16 56 10 46
12 -5 13 -4 4 6 -9 9 -15 9 -26 0 -11 -9 -26 -5 -69 17 -40 21 -65 28 -98 26
-26 -2 -48 2 -52 9 -5 8 -8 8 -8 1z m-150 -252 c0 -2 -11 -13 -25 -24 -20 -16
-23 -23 -14 -34 10 -13 6 -18 -13 -15 -13 2 -9 -17 5 -22 6 -3 8 -6 2 -6 -5 0
-17 4 -25 10 -12 8 -12 12 -2 16 10 4 10 8 0 21 -10 12 -10 14 0 8 6 -4 12 -3
12 3 0 5 -5 11 -12 13 -7 3 -5 7 6 11 10 4 15 3 11 -3 -3 -6 -1 -10 4 -10 10
0 15 13 12 32 0 4 8 6 19 5 11 -1 20 -3 20 -5z m-1203 -134 c-3 -8 -6 -5 -6 6
-1 11 2 17 5 13 3 -3 4 -12 1 -19z m700 3 c0 -11 -5 -18 -9 -15 -4 3 -5 11 -1
19 7 21 12 19 10 -4z m446 -3 c-9 -10 -19 -15 -22 -12 -3 4 0 9 7 11 6 3 10 8
8 12 -3 4 1 8 9 8 13 0 12 -4 -2 -19z m372 4 c-3 -3 -11 0 -18 7 -9 10 -8 11
6 5 10 -3 15 -9 12 -12z m-1040 -12 c3 -5 1 -10 -4 -10 -6 0 -11 5 -11 10 0 6
2 10 4 10 3 0 8 -4 11 -10z m-460 -20 c3 -5 1 -10 -4 -10 -6 0 -11 5 -11 10 0
6 2 10 4 10 3 0 8 -4 11 -10z m677 -14 c7 4 8 2 4 -5 -10 -15 -26 -4 -25 17 1
15 2 15 6 -1 2 -9 9 -14 15 -11z m-217 -6 c-3 -5 -12 -10 -18 -10 -7 0 -6 4 3
10 19 12 23 12 15 0z m444 -13 c8 -10 7 -14 -2 -14 -8 0 -14 6 -14 14 0 7 1
13 2 13 2 0 8 -6 14 -13z m-1154 -7 c3 -5 1 -10 -4 -10 -6 0 -11 5 -11 10 0 6
2 10 4 10 3 0 8 -4 11 -10z m710 -10 c-3 -5 -12 -10 -18 -10 -7 0 -6 4 3 10
19 12 23 12 15 0z m-690 -20 c-4 -13 -2 -20 7 -20 10 0 9 -3 -2 -10 -13 -9
-13 -10 0 -10 12 -1 11 -3 -2 -11 -20 -11 -28 -12 -27 -2 0 4 -8 11 -18 15
-15 7 -14 8 4 4 13 -2 26 0 29 5 3 5 0 9 -5 9 -7 0 -7 7 1 20 7 11 14 20 16
20 2 0 0 -9 -3 -20z m923 -5 c-3 -3 -9 2 -12 12 -6 14 -5 15 5 6 7 -7 10 -15
7 -18z m706 17 c3 -5 -1 -9 -9 -9 -8 0 -12 4 -9 9 3 4 7 8 9 8 2 0 6 -4 9 -8z
m-1397 -15 c0 -8 -6 -14 -14 -14 -9 0 -10 4 -2 14 6 7 12 13 14 13 1 0 2 -6 2
-13z m688 -27 c3 -6 -1 -7 -9 -4 -18 7 -21 14 -7 14 6 0 13 -4 16 -10z m-225
-16 c0 -8 -19 -13 -24 -6 -3 5 1 9 9 9 8 0 15 -2 15 -3z m-722 -66 c-4 -12
-38 -21 -38 -9 0 12 12 21 28 21 7 0 12 -5 10 -12z m688 -50 c3 -4 -4 -5 -16
-3 -13 3 -29 0 -36 -5 -8 -7 -13 -6 -17 3 -3 9 5 13 28 12 18 0 37 -3 41 -7z
m174 8 c0 -3 -4 -8 -10 -11 -5 -3 -10 -1 -10 4 0 6 5 11 10 11 6 0 10 -2 10
-4z m-30 -10 c0 -3 -4 -8 -10 -11 -5 -3 -10 -1 -10 4 0 6 5 11 10 11 6 0 10
-2 10 -4z m465 -6 c9 -15 -11 -20 -29 -7 -16 12 -16 13 3 14 11 1 23 -2 26 -7z
m-1375 -60 c0 -5 -5 -10 -11 -10 -5 0 -7 5 -4 10 3 6 8 10 11 10 2 0 4 -4 4
-10z m-7 -44 c-10 -12 -19 -23 -21 -25 -1 -3 0 6 2 20 5 29 3 26 21 26 13 0
12 -4 -2 -21z"/>
<path d="M610 2187 c0 -2 6 -10 14 -16 11 -9 16 -9 22 1 4 7 4 10 -1 6 -4 -4
-14 -3 -22 3 -7 6 -13 9 -13 6z"/>
<path d="M670 2181 c0 -6 4 -13 10 -16 6 -3 7 1 4 9 -7 18 -14 21 -14 7z"/>
<path d="M670 2135 c0 -8 4 -15 10 -15 5 0 7 7 4 15 -4 8 -8 15 -10 15 -2 0
-4 -7 -4 -15z"/>
<path d="M3385 2140 c-4 -6 -12 -7 -18 -3 -7 3 -4 -3 6 -15 11 -11 16 -26 12
-32 -6 -9 -2 -9 12 -1 11 6 24 7 28 3 5 -4 5 -1 1 6 -5 7 -11 11 -14 8 -3 -3
-11 -1 -19 5 -10 9 -10 15 -2 25 6 8 9 14 6 14 -3 0 -9 -5 -12 -10z"/>
<path d="M670 2099 c0 -4 6 -9 13 -12 8 -3 14 0 14 7 0 7 -6 13 -14 13 -7 0
-13 -4 -13 -8z"/>
<path d="M736 2087 c3 -10 9 -15 12 -12 3 3 0 11 -7 18 -10 9 -11 8 -5 -6z"/>
<path d="M3398 2043 c6 -2 12 -11 12 -19 0 -8 5 -14 10 -14 12 0 9 22 -5 32
-5 4 -14 7 -20 7 -5 0 -4 -3 3 -6z"/>
<path d="M1956 2031 c-3 -5 2 -15 12 -22 15 -12 16 -12 5 2 -7 9 -10 19 -6 22
3 4 4 7 0 7 -3 0 -8 -4 -11 -9z"/>
<path d="M2445 1990 c11 -12 13 -20 6 -20 -7 0 -9 -5 -5 -11 4 -8 9 -7 14 2 9
13 -9 49 -24 49 -5 0 -1 -9 9 -20z"/>
<path d="M3430 1980 c0 -5 5 -10 11 -10 5 0 7 5 4 10 -3 6 -8 10 -11 10 -2 0
-4 -4 -4 -10z"/>
<path d="M3410 1939 c0 -5 5 -7 10 -4 6 3 10 8 10 11 0 2 -4 4 -10 4 -5 0 -10
-5 -10 -11z"/>
<path d="M2950 1880 c0 -5 5 -10 11 -10 5 0 7 5 4 10 -3 6 -8 10 -11 10 -2 0
-4 -4 -4 -10z"/>
<path d="M2950 1839 c0 -5 5 -7 10 -4 6 3 10 8 10 11 0 2 -4 4 -10 4 -5 0 -10
-5 -10 -11z"/>
<path d="M3240 1805 c-22 -23 -38 -81 -19 -69 5 3 9 0 9 -5 0 -6 5 -11 12 -11
9 0 9 3 0 12 -15 15 -16 32 -2 23 6 -3 10 -1 10 5 0 7 -7 10 -15 6 -11 -4 -9
3 6 23 12 17 28 27 35 24 8 -3 14 -3 14 0 0 17 -31 12 -50 -8z"/>
<path d="M3295 1801 c-3 -5 -2 -12 3 -15 5 -3 9 1 9 9 0 17 -3 19 -12 6z"/>
<path d="M3261 1784 c0 -11 3 -14 6 -6 3 7 2 16 -1 19 -3 4 -6 -2 -5 -13z"/>
<path d="M2945 1780 c-4 -6 -12 -7 -18 -4 -7 4 -9 4 -5 -1 4 -4 3 -16 -3 -26
-7 -14 -6 -19 3 -19 9 0 9 -3 -2 -10 -11 -7 -11 -10 -2 -10 7 0 11 -4 8 -9 -3
-5 2 -15 11 -22 14 -12 16 -12 8 1 -14 23 -17 82 -3 74 6 -4 8 -3 4 4 -3 6 2
15 11 21 10 6 13 11 6 11 -6 0 -15 -5 -18 -10z"/>
<path d="M3013 1765 c0 -8 4 -12 9 -9 5 3 6 10 3 15 -9 13 -12 11 -12 -6z"/>
<path d="M1146 1708 c-18 -25 -5 -51 21 -41 13 5 13 7 -1 15 -9 5 -16 14 -16
20 0 7 4 7 14 -1 10 -9 15 -8 19 3 4 11 1 13 -10 9 -11 -4 -14 -2 -9 5 13 21
-2 13 -18 -10z"/>
<path d="M680 1646 c0 -2 8 -10 18 -17 15 -13 16 -12 3 4 -13 16 -21 21 -21
13z"/>
<path d="M2494 1594 c-2 -21 0 -22 14 -8 14 15 17 15 29 -2 12 -16 13 -16 13
-1 0 9 -4 18 -10 18 -19 3 -25 4 -35 11 -6 3 -11 -4 -11 -18z"/>
<path d="M2910 1610 c-9 -6 -10 -10 -3 -10 6 0 15 5 18 10 8 12 4 12 -15 0z"/>
<path d="M2242 1590 c7 -11 16 -20 20 -20 5 0 3 9 -4 20 -7 11 -16 20 -20 20
-5 0 -3 -9 4 -20z"/>
<path d="M3235 1601 c-3 -5 -2 -12 3 -15 5 -3 9 1 9 9 0 17 -3 19 -12 6z"/>
<path d="M646 1583 c-6 -14 -5 -15 5 -6 7 7 10 15 7 18 -3 3 -9 -2 -12 -12z"/>
<path d="M524 1578 c2 -7 -4 -22 -13 -33 -16 -20 -16 -20 6 -2 12 11 27 16 34
11 8 -4 10 -3 5 4 -4 7 -2 12 3 12 6 0 11 4 11 8 0 5 -7 9 -15 9 -8 0 -12 -4
-9 -9 3 -4 1 -8 -5 -8 -5 0 -12 5 -14 10 -3 6 -4 5 -3 -2z"/>
<path d="M1156 1575 c-9 -26 -7 -32 5 -12 6 10 9 21 6 23 -2 3 -7 -2 -11 -11z"/>
<path d="M1519 1583 c-5 -29 -5 -53 -1 -48 7 6 12 55 6 55 -2 0 -5 -3 -5 -7z"/>
<path d="M1666 1582 c-2 -4 7 -17 20 -29 13 -12 24 -18 24 -13 0 5 -9 15 -20
23 -11 8 -17 17 -13 20 3 4 4 7 0 7 -3 0 -8 -3 -11 -8z"/>
<path d="M2073 1572 c0 -12 5 -22 9 -22 11 0 10 12 -2 30 -7 12 -9 10 -7 -8z"/>
<path d="M2426 1578 c3 -4 0 -8 -7 -8 -7 0 -10 -2 -7 -5 7 -7 38 5 38 14 0 4
-7 8 -15 8 -8 0 -12 -4 -9 -9z"/>
<path d="M2566 1575 c4 -8 11 -15 16 -15 6 0 5 6 -2 15 -7 8 -14 15 -16 15 -2
0 -1 -7 2 -15z"/>
<path d="M3163 1574 c-15 -16 -16 -24 -4 -24 8 0 24 30 19 35 -2 2 -9 -3 -15
-11z"/>
<path d="M584 1564 c-18 -14 -18 -15 4 -4 12 6 22 13 22 15 0 8 -5 6 -26 -11z"/>
<path d="M1716 1558 c14 -24 34 -30 34 -11 0 4 -3 4 -6 0 -4 -3 -15 4 -26 16
l-19 22 17 -27z"/>
<path d="M2734 1560 c0 -15 4 -16 18 -9 10 5 18 13 18 16 0 3 -3 3 -7 0 -3 -4
-11 -3 -17 3 -8 6 -12 3 -12 -10z"/>
<path d="M253 1555 c0 -8 4 -12 9 -9 5 3 6 10 3 15 -9 13 -12 11 -12 -6z"/>
<path d="M815 1561 c3 -6 14 -9 25 -8 23 2 17 10 -11 14 -11 2 -18 -1 -14 -6z"/>
<path d="M2036 1558 c3 -5 10 -6 15 -3 13 9 11 12 -6 12 -8 0 -12 -4 -9 -9z"/>
<path d="M3186 1562 c-3 -5 1 -9 9 -9 8 0 12 4 9 9 -3 4 -7 8 -9 8 -2 0 -6 -4
-9 -8z"/>
<path d="M350 1540 c0 -5 5 -10 11 -10 5 0 7 5 4 10 -3 6 -8 10 -11 10 -2 0
-4 -4 -4 -10z"/>
<path d="M2130 1546 c0 -2 7 -7 16 -10 8 -3 12 -2 9 4 -6 10 -25 14 -25 6z"/>
<path d="M2586 1538 c3 -5 10 -6 15 -3 13 9 11 12 -6 12 -8 0 -12 -4 -9 -9z"/>
<path d="M2770 1542 c0 -4 10 -9 22 -9 18 -2 20 0 8 7 -18 12 -30 13 -30 2z"/>
<path d="M1480 1480 c-12 -7 -10 -9 7 -7 12 0 19 5 17 9 -6 10 -6 10 -24 -2z"/>
<path d="M1296 1415 c-3 -8 -1 -15 4 -15 6 0 10 7 10 15 0 8 -2 15 -4 15 -2 0
-6 -7 -10 -15z"/>
<path d="M1324 1415 c3 -23 14 -29 29 -17 8 7 17 9 21 5 4 -4 4 0 0 10 -7 19
-26 24 -21 6 1 -6 -4 -14 -12 -17 -8 -2 -11 0 -7 6 3 6 2 13 -3 16 -5 4 -8 -1
-7 -9z"/>
<path d="M1390 1420 c0 -5 5 -10 11 -10 5 0 7 5 4 10 -3 6 -8 10 -11 10 -2 0
-4 -4 -4 -10z"/>
<path d="M1295 1381 c-3 -5 -2 -12 3 -15 5 -3 9 1 9 9 0 17 -3 19 -12 6z"/>
</g>
</svg>
